<svg width="1055" height="1010" viewBox="0 0 1055 1010" fill="none" xmlns="http://www.w3.org/2000/svg">
<path d="M530.713 876.433C516.156 711.457 673.247 476.124 753.612 379.08L773.323 406.374L530.713 876.433Z" fill="#FFD300"/>
<path d="M524.64 876.433C539.196 711.457 382.108 476.124 301.745 379.08L282.034 406.374L524.64 876.433Z" fill="#FFD300"/>
<path d="M340.802 463.483C187.414 190.526 291.988 40.7624 363.447 0C156.919 45.8954 78.1108 270.743 64.5231 377.429C45.1988 510.284 368.48 852.487 532.536 1006.98V958.67C533.744 750.933 394.249 558.595 340.802 463.483Z" fill="url(#paint0_linear_1455_1716)"/>
<path d="M714.572 465.183C867.363 193.088 763.197 43.7967 692.015 3.16295C897.74 48.9135 976.242 273.051 989.776 379.401C1009.03 511.837 687.002 852.96 523.584 1006.97V958.808C522.381 751.726 661.333 559.995 714.572 465.183Z" fill="url(#paint1_linear_1455_1716)"/>
<path d="M366.468 682.386C521.063 810.41 537.569 919.915 526.498 958.665C526.498 877.744 401.696 759.885 339.294 711.071C327.217 703.824 240.659 630.553 198.891 594.823C150.58 552.551 60.2986 434.189 85.6618 298.918C111.025 163.648 196.878 87.5579 236.634 66.4219C172.622 159.42 145.547 225.949 140.012 247.588C92.9085 409.43 309.953 635.585 366.468 682.386Z" fill="url(#paint2_linear_1455_1716)"/>
<path d="M689.692 682.366C534.808 810.297 518.271 919.723 529.363 958.444C529.363 877.582 654.399 759.809 716.917 711.03C729.017 703.789 815.736 630.57 857.583 594.866C905.984 552.625 996.434 434.349 971.023 299.176C945.613 164.004 859.6 87.9691 819.769 66.8484C883.901 159.779 911.026 226.259 916.572 247.883C963.763 409.607 746.312 635.599 689.692 682.366Z" fill="url(#paint3_linear_1455_1716)"/>
<path d="M210.97 618.983C35.8383 465.743 52.4498 312.008 73.5858 235.515C-45.9846 405.811 6.14661 608.415 49.4258 683.901C64.523 807.698 385.091 958.166 528.011 1010C552.166 954.141 478.299 838.333 402.704 771.465C324.195 702.018 247.203 650.687 210.97 618.983Z" fill="url(#paint4_linear_1455_1716)"/>
<path d="M844.095 619.569C1018.58 466.559 1002.03 313.054 980.973 236.676C1100.1 406.717 1048.16 609.017 1005.04 684.389C990.003 808 670.615 958.243 528.222 1010C504.155 954.223 577.751 838.59 653.067 771.822C731.287 702.479 807.995 651.225 844.095 619.569Z" fill="url(#paint5_linear_1455_1716)"/>
<path d="M149.068 697.49C31.9144 618.985 17.7231 420.205 25.2717 330.629C-31.4937 557.69 72.0729 711.077 130.952 759.388L316.647 816.758C450.71 848.16 506.368 936.528 517.439 976.788C511.401 905.529 405.217 833.364 352.88 806.19C270.752 773.58 182.785 720.136 149.068 697.49Z" fill="url(#paint6_linear_1455_1716)"/>
<path d="M904.694 697.432C1022.04 618.952 1036.26 420.236 1028.7 330.688C1085.56 557.677 981.819 711.015 922.841 759.31L736.835 816.661C602.548 848.053 546.796 936.394 535.707 976.64C541.756 905.404 648.117 833.263 700.541 806.097C782.807 773.497 870.921 720.07 904.694 697.432Z" fill="url(#paint7_linear_1455_1716)"/>
<path d="M13.1923 665.783C14.4017 673.442 17.779 682.89 23.95 693.307C126.673 933.279 398.897 1004.66 526.496 1010C509.587 880.766 349.356 824.303 271.354 812.225C117.778 791.942 48.5913 734.902 23.95 693.307C20.1234 684.368 16.5322 675.195 13.1923 665.783Z" fill="url(#paint8_linear_1455_1716)"/>
<path d="M1042.16 664.278C1040.95 671.971 1037.58 681.461 1031.42 691.923C928.851 932.945 657.044 1004.64 529.641 1010C546.524 880.202 706.509 823.492 784.392 811.361C937.732 790.989 1006.81 733.7 1031.42 691.923C1035.24 682.945 1038.82 673.732 1042.16 664.278Z" fill="url(#paint9_linear_1455_1716)"/>
<path d="M528.006 1008.49C516.432 977.291 454.03 910.361 297.02 892.244C254.061 886.348 171.555 870.018 133.749 846.441C127.528 841.219 122.053 836.325 117.363 831.855C120.712 836.977 126.382 841.847 133.749 846.441C198.962 901.18 346.079 991.953 528.006 1008.49Z" fill="url(#paint10_linear_1455_1716)"/>
<path d="M526.608 1006.97C538.148 975.897 600.362 909.248 756.899 891.208C799.729 885.336 881.986 869.075 919.678 845.598C925.88 840.398 931.339 835.525 936.015 831.073C932.676 836.173 927.023 841.023 919.678 845.598C854.662 900.106 707.988 990.497 526.608 1006.97Z" fill="url(#paint11_linear_1455_1716)"/>
<defs>
<linearGradient id="paint0_linear_1455_1716" x1="126.841" y1="319.419" x2="647.394" y2="406.644" gradientUnits="userSpaceOnUse">
<stop stop-color="#FAB060"/>
<stop offset="1" stop-color="#F61F24"/>
</linearGradient>
<linearGradient id="paint1_linear_1455_1716" x1="927.7" y1="321.574" x2="409.151" y2="408.399" gradientUnits="userSpaceOnUse">
<stop stop-color="#FAB060"/>
<stop offset="1" stop-color="#F61F24"/>
</linearGradient>
<linearGradient id="paint2_linear_1455_1716" x1="144.052" y1="295.813" x2="509.485" y2="843.204" gradientUnits="userSpaceOnUse">
<stop stop-color="#FA9B4E"/>
<stop offset="1" stop-color="#F62028"/>
</linearGradient>
<linearGradient id="paint3_linear_1455_1716" x1="880.983" y1="398.922" x2="565.588" y2="846.236" gradientUnits="userSpaceOnUse">
<stop stop-color="#FA9B4E"/>
<stop offset="1" stop-color="#F62028"/>
</linearGradient>
<linearGradient id="paint4_linear_1455_1716" x1="71.7438" y1="481.186" x2="644.664" y2="622.994" gradientUnits="userSpaceOnUse">
<stop stop-color="#FAB060"/>
<stop offset="1" stop-color="#F61F24"/>
</linearGradient>
<linearGradient id="paint5_linear_1455_1716" x1="982.808" y1="481.978" x2="411.854" y2="622.991" gradientUnits="userSpaceOnUse">
<stop stop-color="#FAB060"/>
<stop offset="1" stop-color="#F61F24"/>
</linearGradient>
<linearGradient id="paint6_linear_1455_1716" x1="33.3604" y1="538.424" x2="424.571" y2="949.346" gradientUnits="userSpaceOnUse">
<stop stop-color="#FA9B4E"/>
<stop offset="1" stop-color="#F62028"/>
</linearGradient>
<linearGradient id="paint7_linear_1455_1716" x1="990.158" y1="617.272" x2="790.448" y2="976.64" gradientUnits="userSpaceOnUse">
<stop stop-color="#FA9B4E"/>
<stop offset="1" stop-color="#F62028"/>
</linearGradient>
<linearGradient id="paint8_linear_1455_1716" x1="82.3271" y1="774.969" x2="537.223" y2="1019.1" gradientUnits="userSpaceOnUse">
<stop stop-color="#FAB060"/>
<stop offset="1" stop-color="#F61F24"/>
</linearGradient>
<linearGradient id="paint9_linear_1455_1716" x1="785.899" y1="664.278" x2="785.899" y2="1010" gradientUnits="userSpaceOnUse">
<stop stop-color="#FA9B4E"/>
<stop offset="1" stop-color="#F62028"/>
</linearGradient>
<linearGradient id="paint10_linear_1455_1716" x1="322.685" y1="831.855" x2="322.685" y2="1008.49" gradientUnits="userSpaceOnUse">
<stop stop-color="#FA9B4E"/>
<stop offset="1" stop-color="#F62028"/>
</linearGradient>
<linearGradient id="paint11_linear_1455_1716" x1="731.312" y1="831.073" x2="731.312" y2="1006.97" gradientUnits="userSpaceOnUse">
<stop stop-color="#FA9B4E"/>
<stop offset="1" stop-color="#F62028"/>
</linearGradient>
</defs>
</svg>
